<svg width="37" height="34" viewBox="0 0 37 34" fill="none" xmlns="http://www.w3.org/2000/svg">
<path d="M7.89066 17.0001C7.89066 16.1717 8.60421 15.5001 9.48441 15.5001H16.9062V8.51483C16.9062 7.6864 17.6198 7.01483 18.5 7.01483C19.3802 7.01483 20.0937 7.6864 20.0937 8.51483V15.5001H27.5156C28.3958 15.5001 29.1094 16.1717 29.1094 17.0001C29.1094 17.8285 28.3958 18.5001 27.5156 18.5001H20.0937V25.4854C20.0937 26.3138 19.3802 26.9854 18.5 26.9854C17.6198 26.9854 16.9062 26.3138 16.9062 25.4854V18.5001H9.48441C8.60421 18.5001 7.89066 17.8285 7.89066 17.0001Z" fill="#00B0D7"/>
<path fill-rule="evenodd" clip-rule="evenodd" d="M8.54803 0.537639C15.1091 -0.15252 21.8908 -0.15252 28.4518 0.537639C32.3329 0.945889 35.4671 3.82317 35.9236 7.4971C36.7082 13.8109 36.7082 20.1893 35.9236 26.5032C35.4671 30.1771 32.3329 33.0544 28.4518 33.4626C21.8908 34.1528 15.1091 34.1528 8.54803 33.4626C4.66697 33.0544 1.53281 30.1771 1.07625 26.5032C0.291639 20.1893 0.291639 13.8109 1.07625 7.4971C1.53281 3.82317 4.66697 0.945889 8.54803 0.537639ZM28.0978 3.51908C21.772 2.85367 15.2278 2.85367 8.90207 3.51908C6.47016 3.77489 4.52355 5.58138 4.24217 7.8456C3.48633 13.9279 3.48633 20.0724 4.24217 26.1547C4.52355 28.4189 6.47015 30.2254 8.90207 30.4812C15.2278 31.1466 21.772 31.1466 28.0978 30.4812C30.5297 30.2254 32.4763 28.4189 32.7577 26.1547C33.5135 20.0724 33.5135 13.9279 32.7577 7.8456C32.4763 5.58138 30.5297 3.77489 28.0978 3.51908Z" fill="#00B0D7"/>
</svg>
