<svg width="25" height="25" viewBox="0 0 25 25" fill="none" xmlns="http://www.w3.org/2000/svg">
<path d="M12.5 0.741104C10.1536 0.754172 7.90802 1.69656 6.25504 3.36189C4.60206 5.02722 3.67641 7.27974 3.6808 9.62615C3.6808 16.5843 11.6683 23.7731 11.9977 24.0695C12.13 24.1916 12.3034 24.2594 12.4835 24.2594C12.6636 24.2594 12.837 24.1916 12.9693 24.0695C13.3152 23.7731 21.3027 16.5843 21.3027 9.62615C21.3071 7.28258 20.3837 5.03253 18.7343 3.36767C17.0848 1.70281 14.8435 0.758508 12.5 0.741104V0.741104Z" stroke="white" stroke-width="1.48221" stroke-linecap="round" stroke-linejoin="round"/>
<path d="M12.5 13.4634C11.728 13.4634 10.9734 13.2345 10.3315 12.8056C9.68961 12.3768 9.18934 11.7672 8.89391 11.054C8.59849 10.3407 8.5212 9.55595 8.6718 8.79881C8.82241 8.04167 9.19415 7.34619 9.74001 6.80032C10.2859 6.25446 10.9814 5.88272 11.7385 5.73211C12.4956 5.58151 13.2804 5.6588 13.9936 5.95422C14.7069 6.24965 15.3164 6.74992 15.7453 7.3918C16.1742 8.03367 16.4031 8.7883 16.4031 9.56028C16.401 10.5948 15.989 11.5863 15.2575 12.3178C14.526 13.0493 13.5345 13.4613 12.5 13.4634V13.4634Z" stroke="white" stroke-width="1.48221" stroke-linecap="round" stroke-linejoin="round"/>
</svg>
