<svg width="8" height="12" viewBox="0 0 8 12" fill="none" xmlns="http://www.w3.org/2000/svg">
<path d="M7.0752 5.23047V6.74805C7.0752 7.5638 7.00228 8.25195 6.85645 8.8125C6.71061 9.37305 6.50098 9.82422 6.22754 10.166C5.9541 10.5078 5.6237 10.7562 5.23633 10.9111C4.85352 11.0615 4.42057 11.1367 3.9375 11.1367C3.55469 11.1367 3.2015 11.0889 2.87793 10.9932C2.55436 10.8975 2.2627 10.7448 2.00293 10.5352C1.74772 10.321 1.52897 10.043 1.34668 9.70117C1.16439 9.35938 1.02539 8.94466 0.929688 8.45703C0.833984 7.9694 0.786133 7.39974 0.786133 6.74805V5.23047C0.786133 4.41471 0.859049 3.73112 1.00488 3.17969C1.15527 2.62826 1.36719 2.1862 1.64062 1.85352C1.91406 1.51628 2.24219 1.27474 2.625 1.12891C3.01237 0.983073 3.44531 0.910156 3.92383 0.910156C4.3112 0.910156 4.66667 0.958008 4.99023 1.05371C5.31836 1.14486 5.61003 1.29297 5.86523 1.49805C6.12044 1.69857 6.33691 1.96745 6.51465 2.30469C6.69694 2.63737 6.83594 3.04525 6.93164 3.52832C7.02734 4.01139 7.0752 4.57878 7.0752 5.23047ZM5.80371 6.95312V5.01855C5.80371 4.57194 5.77637 4.18001 5.72168 3.84277C5.67155 3.50098 5.59635 3.20931 5.49609 2.96777C5.39583 2.72624 5.26823 2.53027 5.11328 2.37988C4.96289 2.22949 4.78743 2.12012 4.58691 2.05176C4.39095 1.97884 4.16992 1.94238 3.92383 1.94238C3.62305 1.94238 3.35645 1.99935 3.12402 2.11328C2.8916 2.22266 2.69564 2.39811 2.53613 2.63965C2.38118 2.88118 2.2627 3.19792 2.18066 3.58984C2.09863 3.98177 2.05762 4.45801 2.05762 5.01855V6.95312C2.05762 7.39974 2.08268 7.79395 2.13281 8.13574C2.1875 8.47754 2.26725 8.77376 2.37207 9.02441C2.47689 9.27051 2.60449 9.47331 2.75488 9.63281C2.90527 9.79232 3.07845 9.91081 3.27441 9.98828C3.47493 10.0612 3.69596 10.0977 3.9375 10.0977C4.2474 10.0977 4.51855 10.0384 4.75098 9.91992C4.9834 9.80143 5.17708 9.61686 5.33203 9.36621C5.49154 9.111 5.61003 8.78516 5.6875 8.38867C5.76497 7.98763 5.80371 7.50911 5.80371 6.95312Z" fill="white"/>
</svg>
